# xmcd
#
# Track frame offsets: 
#        150
#        15534
#        34145
#        47175
#        61667
#        76971
#        88968
#        104714
#        119387
#        135104
#        152410
#        164895
#
# Disc length: 2426 seconds
#
# Revision: 0
# Processed by: cddbd v1.5.2PL0 Copyright (c) Steve Scherf et al.
# Submitted via: ExactAudioCopy v0.95b3
#
DISCID=9709780c
DTITLE=Morris Brothers, The - Blue Ribbon Bluegrass Gospel
DYEAR=2006
DGENRE=Bluegrass
TTITLE0=Working On A Building
TTITLE1=Broken Things
TTITLE2=Daniel Prayed
TTITLE3=Rank Strangers
TTITLE4=Come On In
TTITLE5=Great Speakled Bird
TTITLE6=He Came Down
TTITLE7=Heavenly Flight
TTITLE8=I Long To Go There
TTITLE9=Father, Dear Father, Come Home
TTITLE10=Jesus Is His Name
TTITLE11=The Old Crosroad
EXTD=
EXTT0=
EXTT1=
EXTT2=
EXTT3=
EXTT4=
EXTT5=
EXTT6=
EXTT7=
EXTT8=
EXTT9=
EXTT10=
EXTT11=
PLAYORDER=
